<svg width="128" height="128" viewBox="0 0 128 128" fill="none" xmlns="http://www.w3.org/2000/svg">
<rect x="3.5" y="3.5" width="121" height="121" stroke="#E9420D" stroke-width="7"/>
<rect x="3.5" y="99.5" width="121" height="25" stroke="#E9420D" stroke-width="7"/>
<rect x="3.5" y="3.5" width="121" height="22" stroke="#E9420D" stroke-width="7"/>
<rect x="88.8281" y="99.5" width="35.6667" height="25" stroke="#E9420D" stroke-width="7"/>
<rect x="100.5" y="3.5" width="24" height="22" stroke="#E9420D" stroke-width="7"/>
<rect x="76.5" y="3.5" width="24" height="22" stroke="#E9420D" stroke-width="7"/>
<rect x="3.5" y="3.5" width="24" height="22" stroke="#E9420D" stroke-width="7"/>
<rect x="3.5" y="99.5" width="35.6667" height="25" stroke="#E9420D" stroke-width="7"/>
<rect x="27.5" y="25.5" width="73" height="74" stroke="#E9420D" stroke-width="7"/>
<path d="M64.5906 78.2439C62.3406 78.2439 60.2656 77.8523 58.3656 77.0689C56.4823 76.2856 54.949 75.0939 53.7656 73.4939C52.599 71.8939 51.974 69.8606 51.8906 67.3939H57.6906C57.6906 68.6439 57.999 69.6689 58.6156 70.4689C59.2323 71.2689 60.0573 71.8689 61.0906 72.2689C62.1406 72.6523 63.2906 72.8439 64.5406 72.8439C65.7406 72.8439 66.8073 72.6856 67.7406 72.3689C68.6906 72.0523 69.4323 71.6023 69.9656 71.0189C70.5156 70.4189 70.7906 69.7106 70.7906 68.8939C70.7906 67.8106 70.4573 66.9606 69.7906 66.3439C69.1406 65.7273 68.0906 65.1606 66.6406 64.6439L60.2406 62.0939C57.7406 61.1106 55.824 59.9689 54.4906 58.6689C53.1573 57.3689 52.4906 55.5773 52.4906 53.2939C52.4906 50.6606 53.5323 48.5273 55.6156 46.8939C57.699 45.2606 60.6073 44.4439 64.3406 44.4439C67.974 44.4439 70.7823 45.2939 72.7656 46.9939C74.749 48.6773 75.874 51.0273 76.1406 54.0439H70.3406C70.124 52.7606 69.5406 51.7356 68.5906 50.9689C67.6406 50.1856 66.224 49.7939 64.3406 49.7939C62.674 49.7939 61.3573 50.1439 60.3906 50.8439C59.424 51.5273 58.9406 52.3939 58.9406 53.4439C58.9406 54.3439 59.2406 55.0606 59.8406 55.5939C60.4573 56.1106 61.4073 56.6106 62.6906 57.0939L69.7906 59.8439C72.1906 60.7773 74.0323 61.9523 75.3156 63.3689C76.599 64.7856 77.2406 66.5606 77.2406 68.6939C77.2406 70.6439 76.749 72.3356 75.7656 73.7689C74.7823 75.1856 73.349 76.2856 71.4656 77.0689C69.5823 77.8523 67.2906 78.2439 64.5906 78.2439Z" fill="#E9420D"/>
</svg>
