<svg width="128" height="128" viewBox="0 0 128 128" fill="none" xmlns="http://www.w3.org/2000/svg">
<rect x="3.5" y="3.5" width="121" height="121" rx="21.5" stroke="#E9420D" stroke-width="7"/>
<rect x="27.5" y="3.5" width="73" height="121" stroke="#E9420D" stroke-width="7"/>
<rect x="3.5" y="27.5" width="121" height="73" stroke="#E9420D" stroke-width="7"/>
<path d="M81.5155 50.12C81.5155 51.6 81.0355 52.8 80.0755 53.72C79.1555 54.6 77.8755 55.04 76.2355 55.04C74.5955 55.04 73.0555 54.52 71.6155 53.48C71.9355 52.84 72.0955 52.02 72.0955 51.02C72.0955 49.98 71.4955 49.06 70.2955 48.26C69.1355 47.46 67.4555 47.06 65.2555 47.06C63.0955 47.06 61.3155 47.46 59.9155 48.26C58.5155 49.06 57.8155 50.14 57.8155 51.5C57.8155 52.82 58.6555 54.06 60.3355 55.22C62.0555 56.34 64.1155 57.44 66.5155 58.52C68.9555 59.56 71.3755 60.7 73.7755 61.94C76.2155 63.18 78.2755 64.8 79.9555 66.8C81.6755 68.8 82.5355 71.04 82.5355 73.52C82.5355 77.36 80.8155 80.52 77.3755 83C73.9755 85.44 69.8355 86.66 64.9555 86.66C60.1155 86.66 56.0155 85.76 52.6555 83.96C49.2955 82.12 47.6155 79.76 47.6155 76.88C47.6155 75.2 48.1955 73.86 49.3555 72.86C50.5555 71.86 51.9755 71.36 53.6155 71.36C55.2955 71.36 56.9355 72 58.5355 73.28C57.5755 74.16 57.0955 75.22 57.0955 76.46C57.0955 77.7 57.8155 78.74 59.2555 79.58C60.7355 80.42 62.6955 80.84 65.1355 80.84C67.6155 80.84 69.5555 80.34 70.9555 79.34C72.3955 78.34 73.1155 77.02 73.1155 75.38C73.1155 73.7 72.2555 72.22 70.5355 70.94C68.8555 69.62 66.7955 68.44 64.3555 67.4C61.9555 66.36 59.5355 65.26 57.0955 64.1C54.6955 62.94 52.6355 61.48 50.9155 59.72C49.2355 57.92 48.3955 55.88 48.3955 53.6C48.3955 49.84 50.0355 46.84 53.3155 44.6C56.5955 42.36 60.6155 41.24 65.3755 41.24C70.1355 41.24 74.0155 42.08 77.0155 43.76C80.0155 45.44 81.5155 47.56 81.5155 50.12Z" fill="#E9420D"/>
</svg>
